<?xml version="1.0" encoding="UTF-8" standalone="no"?>
<!DOCTYPE svg PUBLIC "-//W3C//DTD SVG 1.1//EN" "http://www.w3.org/Graphics/SVG/1.1/DTD/svg11.dtd">
<svg width="275px" height="64px" viewBox="0 0 550 128" version="1.1" xmlns="http://www.w3.org/2000/svg" xmlns:xlink="http://www.w3.org/1999/xlink" xml:space="preserve" xmlns:serif="http://www.serif.com/" style="fill-rule:evenodd;clip-rule:evenodd;stroke-miterlimit:2;">
    <g transform="matrix(2.15385,0,0,2.15385,-792.42,-121.231)">
        <rect x="371.624" y="60" width="52" height="52" style="fill:rgb(134,168,184);stroke:rgb(20,20,20);stroke-width:2.41px;"/>
    </g>
    <g id="path4870-1" transform="matrix(2.15385,0,0,2.15385,-113.959,-97.6588)">
        <path d="M56.624,59.25L72.979,59.25L73,66.743" style="fill:none;fill-rule:nonzero;stroke:rgb(20,20,20);stroke-width:2.41px;stroke-miterlimit:4;"/>
    </g>
    <g id="path2790" transform="matrix(1.382,0,0,1.80941,-74.5875,-69.2672)">
        <path d="M72.75,64.5L97.75,64.5L85.25,82L72.75,64.5Z" style="fill:rgb(20,20,20);fill-rule:nonzero;stroke:rgb(20,20,20);stroke-width:3.23px;stroke-miterlimit:4;"/>
    </g>
    <g id="path2792" transform="matrix(1.43136,0,0,2.15385,-78.6964,-97.3725)">
        <path d="M97.25,83L73.112,83" style="fill:none;fill-rule:nonzero;stroke:rgb(20,20,20);stroke-width:2.84px;stroke-miterlimit:4;"/>
    </g>
    <g id="path2830" transform="matrix(2.15385,0,0,2.15385,-249.538,-97.6588)">
        <path d="M155.195,57.556L155.195,92.556" style="fill:none;fill-rule:nonzero;stroke:rgb(20,20,20);stroke-width:2.41px;stroke-miterlimit:4;"/>
    </g>
    <g id="path2834" transform="matrix(2.15385,0,0,2.15385,-256.923,-101.05)">
        <path d="M158.624,84.324L170.195,92.806L175,92.824" style="fill:none;fill-rule:nonzero;stroke:rgb(20,20,20);stroke-width:2.41px;stroke-miterlimit:4;"/>
    </g>
    <g id="path28341" serif:id="path2834" transform="matrix(1.31885e-16,2.15385,-2.15385,1.31885e-16,287.791,-264.309)">
        <path d="M166.825,90.336L168.407,84.798L166.725,83.558L161.895,86.722L166.825,90.336" style="fill:rgb(20,20,20);fill-rule:nonzero;"/>
    </g>
    <g id="path2798" transform="matrix(2.15385,0,0,2.15385,-256.923,-97.6588)">
        <path d="M158.624,66.743L171,59.25L175,59.25" style="fill:none;fill-rule:nonzero;stroke:rgb(20,20,20);stroke-width:2.41px;stroke-miterlimit:4;"/>
    </g>
    <g id="path3615" transform="matrix(2.15385,0,0,2.15385,-113.959,-97.6588)">
        <path d="M72.979,82.75L72.979,91.25L56.624,91.25" style="fill:none;fill-rule:nonzero;stroke:rgb(20,20,20);stroke-width:2.41px;stroke-miterlimit:4;"/>
    </g>
    <g transform="matrix(1,0,0,1,7.99762,35.4896)">
        <path d="M186.487,67.742C203.639,67.742 217.463,56.877 220.151,36.777L212.599,36.777C210.423,49.708 202.359,60.718 186.359,60.718C168.567,60.718 159.095,46.635 159.095,27.174C159.095,7.841 168.567,-6.242 186.487,-6.242C202.487,-6.242 210.551,4.897 212.599,17.7L220.023,17.7C217.463,-2.529 203.511,-13.266 186.359,-13.266C167.287,-13.266 151.559,0.288 151.559,27.174C151.559,54.061 167.543,67.742 186.487,67.742Z" style="fill:rgb(20,20,20);fill-rule:nonzero;"/>
        <path d="M257.407,67.742C272.261,67.742 285.047,57.389 285.047,36.519C285.047,15.52 272.261,5.038 257.407,5.038C242.425,5.038 229.639,15.52 229.639,36.39C229.639,57.517 242.554,67.742 257.407,67.742ZM257.407,61.102C243.834,61.102 236.919,50.475 236.919,36.39C236.919,22.306 243.962,11.806 257.407,11.806C270.725,11.806 277.895,22.434 277.895,36.519C277.895,50.475 270.725,61.102 257.407,61.102Z" style="fill:rgb(20,20,20);fill-rule:nonzero;"/>
        <path d="M337.159,40.75C337.159,53.422 329.604,60.846 318.975,60.846C308.73,60.846 302.711,54.574 302.711,42.798L302.711,6.83L295.559,6.83L295.559,45.23C295.559,59.182 303.224,67.742 316.414,67.742C326.018,67.742 333.061,63.145 337.159,55.854L337.159,66.078L344.311,66.078L344.311,6.83L337.159,6.83L337.159,40.75Z" style="fill:rgb(20,20,20);fill-rule:nonzero;"/>
        <path d="M384,5.166C374.652,5.166 366.969,10.019 362.999,17.825L362.999,6.83L355.847,6.83L355.847,84.51L362.999,84.51L362.999,55.214C366.969,62.89 374.396,67.742 384,67.742C399.11,67.742 409.847,56.622 409.847,36.398C409.847,16.416 399.11,5.166 384,5.166ZM382.719,61.102C369.53,61.102 362.231,51.243 362.231,36.519C362.231,21.666 369.658,11.806 382.719,11.806C395.653,11.806 402.567,21.154 402.567,36.39C402.567,51.755 395.653,61.102 382.719,61.102Z" style="fill:rgb(20,20,20);fill-rule:nonzero;"/>
        <rect x="420.359" y="-11.73" width="7.152" height="77.808" style="fill:rgb(20,20,20);fill-rule:nonzero;"/>
        <path d="M465.408,5.166C450.681,5.166 437.895,16.034 437.895,36.9C437.895,57.772 451.194,67.742 465.792,67.742C478.469,67.742 488.32,60.334 490.874,47.269L483.591,47.269C481.542,55.466 475.396,60.974 465.664,60.974C452.986,60.974 445.816,52.008 445.175,38.686L492.023,38.686C492.919,16.418 480.902,5.166 465.408,5.166ZM465.408,11.806C477.188,11.806 484.231,20.133 484.871,33.198L445.303,33.198C446.584,20.645 453.499,11.806 465.408,11.806Z" style="fill:rgb(20,20,20);fill-rule:nonzero;"/>
        <path d="M509.687,6.83L502.535,6.83L502.535,66.078L509.687,66.078L509.687,33.566C509.687,18.206 519.415,9.51 531.191,14.622L531.319,14.622L531.319,6.19C520.183,3.502 512.759,8.871 509.687,20.382L509.687,6.83Z" style="fill:rgb(20,20,20);fill-rule:nonzero;"/>
    </g>
</svg>
